<svg width="64" height="64" viewBox="0 0 64 64" fill="none" xmlns="http://www.w3.org/2000/svg">
  <!-- Gradient Definitions -->
  <defs>
    <linearGradient id="grad1" x1="0%" y1="0%" x2="100%" y2="100%">
      <stop offset="0%" style="stop-color:#a855f7;stop-opacity:1" />
      <stop offset="100%" style="stop-color:#ec4899;stop-opacity:1" />
    </linearGradient>
  </defs>
  
  <!-- Shield Background -->
  <path d="M32 4 L10 14 L10 30 Q10 46 32 58 Q54 46 54 30 L54 14 Z" fill="url(#grad1)"/>
  
  <!-- Inner Shield -->
  <path d="M32 10 L16 17 L16 30 Q16 42 32 51 Q48 42 48 30 L48 17 Z" fill="white" opacity="0.15"/>
  
  <!-- Scales - Left -->
  <circle cx="22" cy="29" r="4" fill="white"/>
  <rect x="21" y="33" width="2" height="8" fill="white"/>
  
  <!-- Scales - Right -->
  <circle cx="42" cy="29" r="4" fill="white"/>
  <rect x="41" y="33" width="2" height="8" fill="white"/>
  
  <!-- Balance Beam -->
  <rect x="20" y="28" width="24" height="2" fill="white"/>
  
  <!-- Center Pillar -->
  <rect x="31" y="20" width="2" height="21" fill="white"/>
  
  <!-- AI Node Top -->
  <circle cx="32" cy="16" r="2.5" fill="white"/>
</svg>
